Coordinates
version=1
nRows=12
nColumns=24
inDegrees=yes

Units are S.I. units (second, meters, Newtons, ...)
Angles are in degrees.

endheader
time	pelvis_tilt	pelvis_list	pelvis_rotation	pelvis_tx	pelvis_ty	pelvis_tz	hip_flexion_r	hip_adduction_r	hip_rotation_r	knee_angle_r	ankle_angle_r	subtalar_angle_r	mtp_angle_r	hip_flexion_l	hip_adduction_l	hip_rotation_l	knee_angle_l	ankle_angle_l	subtalar_angle_l	mtp_angle_l	lumbar_extension	lumbar_bending	lumbar_rotation
      0.54600000	      0.15689910	      2.80480077	      2.74417546	     -0.76624981	      0.99165449	      0.27656932	     22.24736725	     -2.15302563	     -3.57956150	      1.60412462	      3.07772597	    -11.64076167	      8.11581707	    -19.63612670	      4.81933885	      5.97378990	     -2.24401684	     11.27084908	    -12.29792009	      3.41664350	     -3.43476613	     -4.35355280	     -4.52239757
      0.55016667	      0.16057686	      2.73200102	      2.83147279	     -0.76014316	      0.99103146	      0.27678896	     22.29638819	     -2.07477646	     -3.35721850	      1.21214918	      3.06602550	    -11.96691391	      8.11389038	    -19.72497369	      4.68418147	      5.98917921	     -2.81299853	     11.40800613	    -12.12789544	      3.46290247	     -3.41276224	     -4.23536770	     -4.67067423
      0.55433333	      0.18384468	      2.64403574	      2.91708997	     -0.75397574	      0.99047451	      0.27699819	     22.32385121	     -1.97868483	     -3.15033794	      0.75176014	      3.07802388	    -12.24390717	      8.11991377	    -19.82595948	      4.53644978	      6.04330719	     -3.41014075	     11.54929121	    -12.02429782	      3.49821503	     -3.39443796	     -4.07719744	     -4.74802023
      0.55850000	      0.17819381	      2.53901681	      2.99097048	     -0.74774319	      0.98992774	      0.27727198	     22.36694638	     -1.85184173	     -2.87484432	      0.27258728	      2.89002380	    -12.71602054	      8.14121970	    -19.85541015	      4.36772493	      5.91635988	     -4.07491560	     11.66275797	    -11.67211143	      3.58145566	     -3.35490470	     -3.93418130	     -4.90103763
      0.56266667	      0.19734062	      2.43105296	      3.07014972	     -0.74146772	      0.98945421	      0.27751686	     22.38827470	     -1.72311352	     -2.63609731	     -0.27895876	      2.80471673	    -13.06775198	      8.16472045	    -19.90960472	      4.20127943	      5.91291383	     -4.75342947	     11.78726644	    -11.51061531	      3.65097814	     -3.31959064	     -3.75295879	     -4.97632718
      0.56683333	      0.19952948	      2.31102534	      3.13549636	     -0.73513713	      0.98899934	      0.27782188	     22.41633089	     -1.56871415	     -2.36398819	     -0.83978069	      2.51501873	    -13.55463131	      8.21204705	    -19.90243271	      4.02004428	      5.75586777	     -5.51442413	     11.84257747	    -11.15695119	      3.77899195	     -3.27286355	     -3.59136153	     -5.08840746
      0.57100000	      0.21813272	      2.17762951	      3.20366422	     -0.72874969	      0.98860482	      0.27811335	     22.42393100	     -1.39906730	     -2.11109879	     -1.44465129	      2.29643834	    -13.98131060	      8.26050907	    -19.91502959	      3.82800631	      5.67619288	     -6.27626411	     11.93596776	    -10.93386424	      3.90221313	     -3.22210252	     -3.38228564	     -5.16511986
      0.57516667	      0.21877872	      2.04461899	      3.26019646	     -0.72231640	      0.98823532	      0.27844470	     22.44965794	     -1.22042726	     -1.85516352	     -2.07390347	      1.95846954	    -14.43723584	      8.31968478	    -19.87013385	      3.63867659	      5.52709140	     -7.10448013	     11.94072073	    -10.65038391	      4.05628685	     -3.15507931	     -3.19438968	     -5.24294349
      0.57933333	      0.24406223	      1.89925588	      3.31277083	     -0.71583615	      0.98793566	      0.27879152	     22.43947968	     -1.02282182	     -1.60867253	     -2.71248377	      1.59040215	    -14.88700601	      8.39334449	    -19.83709626	      3.43469697	      5.35405946	     -7.96694023	     11.92670052	    -10.33925566	      4.25208624	     -3.10661254	     -2.98471265	     -5.30432303
      0.58350000	      0.25388094	      1.75844848	      3.35660922	     -0.70931811	      0.98766381	      0.27915783	     22.45014853	     -0.82498377	     -1.37805283	     -3.38173039	      1.19679636	    -15.30361649	      8.47294851	    -19.76154570	      3.24001896	      5.16741489	     -8.87055724	     11.86294295	    -10.05233838	      4.47542492	     -3.03486175	     -2.78602106	     -5.35248370
      0.58766667	      0.28090492	      1.60684235	      3.39016280	     -0.70276682	      0.98745010	      0.27954793	     22.43788634	     -0.60838035	     -1.15648221	     -4.05841042	      0.77507836	    -15.71184861	      8.56002037	    -19.67715242	      3.03504496	      4.94725517	     -9.83082153	     11.76705242	     -9.74268103	      4.73914153	     -2.98012206	     -2.57044146	     -5.38938867
      0.59183333	      0.39987234	      1.43185675	      3.40169558	     -0.69618079	      0.98738562	      0.27999295	     22.31542978	     -0.35297287	     -0.93807198	     -4.72409756	      0.36153932	    -16.05382155	      8.89470234	    -19.65231773	      2.78890974	      4.53959383	    -10.86235211	     11.68828329	     -9.22439714	      5.81500651	     -3.03559815	     -2.31750524	     -5.39873028
